<svg xmlns="http://www.w3.org/2000/svg" xmlns:xlink="http://www.w3.org/1999/xlink" width="500" zoomAndPan="magnify" viewBox="0 0 375 149.999998" height="200" preserveAspectRatio="xMidYMid meet" version="1.2"><defs><clipPath id="d48b84b192"><path d="M 22.679688 0 L 127.320312 0 L 127.320312 118.558594 L 22.679688 118.558594 Z M 22.679688 0 "/></clipPath><clipPath id="afa4459353"><path d="M 0 118.558594 L 149.960938 118.558594 L 149.960938 149.992188 L 0 149.992188 Z M 0 118.558594 "/></clipPath><clipPath id="b4c6a7dfcf"><path d="M 3 118.558594 L 147 118.558594 C 147.796875 118.558594 148.558594 118.875 149.121094 119.4375 C 149.683594 120 150 120.761719 150 121.558594 L 150 147 C 150 147.796875 149.683594 148.558594 149.121094 149.121094 C 148.558594 149.683594 147.796875 150 147 150 L 3 150 C 1.34375 150 0 148.65625 0 147 L 0 121.558594 C 0 119.902344 1.34375 118.558594 3 118.558594 Z M 3 118.558594 "/></clipPath><linearGradient x1="610.65503" gradientTransform="matrix(0.122789,0,0,0.122789,-0.000738826,118.558327)" y1="-0.0000190565" x2="610.65503" gradientUnits="userSpaceOnUse" y2="255.999971" id="44c2723567"><stop style="stop-color:#5c76ff;stop-opacity:1;" offset="0"/><stop style="stop-color:#5c76ff;stop-opacity:1;" offset="0.0078125"/><stop style="stop-color:#5b76ff;stop-opacity:1;" offset="0.015625"/><stop style="stop-color:#5b75ff;stop-opacity:1;" offset="0.0234375"/><stop style="stop-color:#5a75ff;stop-opacity:1;" offset="0.03125"/><stop style="stop-color:#5974ff;stop-opacity:1;" offset="0.0390625"/><stop style="stop-color:#5974ff;stop-opacity:1;" offset="0.046875"/><stop style="stop-color:#5874ff;stop-opacity:1;" offset="0.0546875"/><stop style="stop-color:#5873ff;stop-opacity:1;" offset="0.0625"/><stop style="stop-color:#5773ff;stop-opacity:1;" offset="0.0703125"/><stop style="stop-color:#5673ff;stop-opacity:1;" offset="0.078125"/><stop style="stop-color:#5672ff;stop-opacity:1;" offset="0.0859375"/><stop style="stop-color:#5572ff;stop-opacity:1;" offset="0.09375"/><stop style="stop-color:#5571ff;stop-opacity:1;" offset="0.101563"/><stop style="stop-color:#5471ff;stop-opacity:1;" offset="0.109375"/><stop style="stop-color:#5471ff;stop-opacity:1;" offset="0.117187"/><stop style="stop-color:#5370ff;stop-opacity:1;" offset="0.125"/><stop style="stop-color:#5270ff;stop-opacity:1;" offset="0.132812"/><stop style="stop-color:#5270ff;stop-opacity:1;" offset="0.140625"/><stop style="stop-color:#516fff;stop-opacity:1;" offset="0.148438"/><stop style="stop-color:#516fff;stop-opacity:1;" offset="0.15625"/><stop style="stop-color:#506eff;stop-opacity:1;" offset="0.164062"/><stop style="stop-color:#4f6eff;stop-opacity:1;" offset="0.171875"/><stop style="stop-color:#4f6eff;stop-opacity:1;" offset="0.179688"/><stop style="stop-color:#4e6dff;stop-opacity:1;" offset="0.1875"/><stop style="stop-color:#4e6dff;stop-opacity:1;" offset="0.195312"/><stop style="stop-color:#4d6dff;stop-opacity:1;" offset="0.203125"/><stop style="stop-color:#4d6cff;stop-opacity:1;" offset="0.210938"/><stop style="stop-color:#4c6cff;stop-opacity:1;" offset="0.21875"/><stop style="stop-color:#4b6bff;stop-opacity:1;" offset="0.226562"/><stop style="stop-color:#4b6bff;stop-opacity:1;" offset="0.234375"/><stop style="stop-color:#4a6bff;stop-opacity:1;" offset="0.242188"/><stop style="stop-color:#4a6aff;stop-opacity:1;" offset="0.25"/><stop style="stop-color:#496aff;stop-opacity:1;" offset="0.257812"/><stop style="stop-color:#486aff;stop-opacity:1;" offset="0.265625"/><stop style="stop-color:#4869ff;stop-opacity:1;" offset="0.273438"/><stop style="stop-color:#4769ff;stop-opacity:1;" offset="0.28125"/><stop style="stop-color:#4768ff;stop-opacity:1;" offset="0.289062"/><stop style="stop-color:#4668ff;stop-opacity:1;" offset="0.296875"/><stop style="stop-color:#4668ff;stop-opacity:1;" offset="0.304687"/><stop style="stop-color:#4567ff;stop-opacity:1;" offset="0.3125"/><stop style="stop-color:#4467ff;stop-opacity:1;" offset="0.320313"/><stop style="stop-color:#4467ff;stop-opacity:1;" offset="0.328125"/><stop style="stop-color:#4366ff;stop-opacity:1;" offset="0.335938"/><stop style="stop-color:#4366ff;stop-opacity:1;" offset="0.34375"/><stop style="stop-color:#4265ff;stop-opacity:1;" offset="0.351562"/><stop style="stop-color:#4165ff;stop-opacity:1;" offset="0.359375"/><stop style="stop-color:#4165ff;stop-opacity:1;" offset="0.367188"/><stop style="stop-color:#4064ff;stop-opacity:1;" offset="0.375"/><stop style="stop-color:#4064ff;stop-opacity:1;" offset="0.382812"/><stop style="stop-color:#3f64ff;stop-opacity:1;" offset="0.390625"/><stop style="stop-color:#3e63ff;stop-opacity:1;" offset="0.398438"/><stop style="stop-color:#3e63ff;stop-opacity:1;" offset="0.40625"/><stop style="stop-color:#3d62ff;stop-opacity:1;" offset="0.414062"/><stop style="stop-color:#3d62ff;stop-opacity:1;" offset="0.421875"/><stop style="stop-color:#3c62ff;stop-opacity:1;" offset="0.429687"/><stop style="stop-color:#3c61ff;stop-opacity:1;" offset="0.4375"/><stop style="stop-color:#3b61ff;stop-opacity:1;" offset="0.445313"/><stop style="stop-color:#3a61ff;stop-opacity:1;" offset="0.453125"/><stop style="stop-color:#3a60ff;stop-opacity:1;" offset="0.460938"/><stop style="stop-color:#3960ff;stop-opacity:1;" offset="0.46875"/><stop style="stop-color:#395fff;stop-opacity:1;" offset="0.476562"/><stop style="stop-color:#385fff;stop-opacity:1;" offset="0.484375"/><stop style="stop-color:#375fff;stop-opacity:1;" offset="0.492188"/><stop style="stop-color:#375eff;stop-opacity:1;" offset="0.5"/><stop style="stop-color:#365eff;stop-opacity:1;" offset="0.507812"/><stop style="stop-color:#365eff;stop-opacity:1;" offset="0.515625"/><stop style="stop-color:#355dff;stop-opacity:1;" offset="0.523437"/><stop style="stop-color:#355dff;stop-opacity:1;" offset="0.53125"/><stop style="stop-color:#345cff;stop-opacity:1;" offset="0.539063"/><stop style="stop-color:#335cff;stop-opacity:1;" offset="0.546875"/><stop style="stop-color:#335cff;stop-opacity:1;" offset="0.554688"/><stop style="stop-color:#325bff;stop-opacity:1;" offset="0.5625"/><stop style="stop-color:#325bff;stop-opacity:1;" offset="0.570312"/><stop style="stop-color:#315bff;stop-opacity:1;" offset="0.578125"/><stop style="stop-color:#305aff;stop-opacity:1;" offset="0.585938"/><stop style="stop-color:#305aff;stop-opacity:1;" offset="0.59375"/><stop style="stop-color:#2f59ff;stop-opacity:1;" offset="0.601562"/><stop style="stop-color:#2f59ff;stop-opacity:1;" offset="0.609375"/><stop style="stop-color:#2e59ff;stop-opacity:1;" offset="0.617187"/><stop style="stop-color:#2d58ff;stop-opacity:1;" offset="0.625"/><stop style="stop-color:#2d58ff;stop-opacity:1;" offset="0.632813"/><stop style="stop-color:#2c58ff;stop-opacity:1;" offset="0.640625"/><stop style="stop-color:#2c57ff;stop-opacity:1;" offset="0.648438"/><stop style="stop-color:#2b57ff;stop-opacity:1;" offset="0.65625"/><stop style="stop-color:#2b56ff;stop-opacity:1;" offset="0.664062"/><stop style="stop-color:#2a56ff;stop-opacity:1;" offset="0.671875"/><stop style="stop-color:#2956ff;stop-opacity:1;" offset="0.679688"/><stop style="stop-color:#2955ff;stop-opacity:1;" offset="0.6875"/><stop style="stop-color:#2855ff;stop-opacity:1;" offset="0.695312"/><stop style="stop-color:#2855ff;stop-opacity:1;" offset="0.703125"/><stop style="stop-color:#2754ff;stop-opacity:1;" offset="0.710937"/><stop style="stop-color:#2654ff;stop-opacity:1;" offset="0.71875"/><stop style="stop-color:#2653ff;stop-opacity:1;" offset="0.726563"/><stop style="stop-color:#2553ff;stop-opacity:1;" offset="0.734375"/><stop style="stop-color:#2553ff;stop-opacity:1;" offset="0.742188"/><stop style="stop-color:#2452ff;stop-opacity:1;" offset="0.75"/><stop style="stop-color:#2452ff;stop-opacity:1;" offset="0.757812"/><stop style="stop-color:#2352ff;stop-opacity:1;" offset="0.765625"/><stop style="stop-color:#2251ff;stop-opacity:1;" offset="0.773437"/><stop style="stop-color:#2251ff;stop-opacity:1;" offset="0.78125"/><stop style="stop-color:#2150ff;stop-opacity:1;" offset="0.789063"/><stop style="stop-color:#2150ff;stop-opacity:1;" offset="0.796875"/><stop style="stop-color:#2050ff;stop-opacity:1;" offset="0.804688"/><stop style="stop-color:#1f4fff;stop-opacity:1;" offset="0.8125"/><stop style="stop-color:#1f4fff;stop-opacity:1;" offset="0.820312"/><stop style="stop-color:#1e4fff;stop-opacity:1;" offset="0.828125"/><stop style="stop-color:#1e4eff;stop-opacity:1;" offset="0.835938"/><stop style="stop-color:#1d4eff;stop-opacity:1;" offset="0.84375"/><stop style="stop-color:#1d4dff;stop-opacity:1;" offset="0.851562"/><stop style="stop-color:#1c4dff;stop-opacity:1;" offset="0.859375"/><stop style="stop-color:#1b4dff;stop-opacity:1;" offset="0.867187"/><stop style="stop-color:#1b4cff;stop-opacity:1;" offset="0.875"/><stop style="stop-color:#1a4cff;stop-opacity:1;" offset="0.882813"/><stop style="stop-color:#1a4cff;stop-opacity:1;" offset="0.890625"/><stop style="stop-color:#194bff;stop-opacity:1;" offset="0.898438"/><stop style="stop-color:#184bff;stop-opacity:1;" offset="0.90625"/><stop style="stop-color:#184aff;stop-opacity:1;" offset="0.914062"/><stop style="stop-color:#174aff;stop-opacity:1;" offset="0.921875"/><stop style="stop-color:#174aff;stop-opacity:1;" offset="0.929688"/><stop style="stop-color:#1649ff;stop-opacity:1;" offset="0.9375"/><stop style="stop-color:#1549ff;stop-opacity:1;" offset="0.945312"/><stop style="stop-color:#1549ff;stop-opacity:1;" offset="0.953125"/><stop style="stop-color:#1448ff;stop-opacity:1;" offset="0.960937"/><stop style="stop-color:#1448ff;stop-opacity:1;" offset="0.96875"/><stop style="stop-color:#1347ff;stop-opacity:1;" offset="0.976563"/><stop style="stop-color:#1347ff;stop-opacity:1;" offset="0.984375"/><stop style="stop-color:#1247ff;stop-opacity:1;" offset="0.992188"/><stop style="stop-color:#1146ff;stop-opacity:1;" offset="1"/></linearGradient><clipPath id="1d6c3d4e83"><path d="M 0 98.066406 L 26.550781 98.066406 L 26.550781 129.5 L 0 129.5 Z M 0 98.066406 "/></clipPath><clipPath id="b5a98b33f9"><path d="M 3 98.066406 L 23.558594 98.066406 C 25.214844 98.066406 26.558594 99.410156 26.558594 101.066406 L 26.558594 126.507812 C 26.558594 128.167969 25.214844 129.507812 23.558594 129.507812 L 3 129.507812 C 1.34375 129.507812 0 128.167969 0 126.507812 L 0 101.066406 C 0 99.410156 1.34375 98.066406 3 98.066406 Z M 3 98.066406 "/></clipPath><linearGradient x1="128" gradientTransform="matrix(0.103712,0,0,0.103712,0.000003125,98.067253)" y1="0.00390808" x2="128" gradientUnits="userSpaceOnUse" y2="303.082" id="9a38fdefbe"><stop style="stop-color:#5c76ff;stop-opacity:1;" offset="0"/><stop style="stop-color:#5c76ff;stop-opacity:1;" offset="0.03125"/><stop style="stop-color:#5b75ff;stop-opacity:1;" offset="0.0625"/><stop style="stop-color:#5a75ff;stop-opacity:1;" offset="0.09375"/><stop style="stop-color:#5a74ff;stop-opacity:1;" offset="0.125"/><stop style="stop-color:#5974fe;stop-opacity:1;" offset="0.15625"/><stop style="stop-color:#5873fe;stop-opacity:1;" offset="0.1875"/><stop style="stop-color:#5773fe;stop-opacity:1;" offset="0.21875"/><stop style="stop-color:#5773fe;stop-opacity:1;" offset="0.25"/><stop style="stop-color:#5672fe;stop-opacity:1;" offset="0.28125"/><stop style="stop-color:#5572fe;stop-opacity:1;" offset="0.3125"/><stop style="stop-color:#5571fe;stop-opacity:1;" offset="0.34375"/><stop style="stop-color:#5471fe;stop-opacity:1;" offset="0.375"/><stop style="stop-color:#5370fd;stop-opacity:1;" offset="0.40625"/><stop style="stop-color:#5270fd;stop-opacity:1;" offset="0.4375"/><stop style="stop-color:#526ffd;stop-opacity:1;" offset="0.46875"/><stop style="stop-color:#516ffd;stop-opacity:1;" offset="0.5"/><stop style="stop-color:#506efd;stop-opacity:1;" offset="0.53125"/><stop style="stop-color:#506efd;stop-opacity:1;" offset="0.5625"/><stop style="stop-color:#4f6dfd;stop-opacity:1;" offset="0.59375"/><stop style="stop-color:#4e6dfd;stop-opacity:1;" offset="0.625"/><stop style="stop-color:#4d6cfc;stop-opacity:1;" offset="0.65625"/><stop style="stop-color:#4d6cfc;stop-opacity:1;" offset="0.6875"/><stop style="stop-color:#4c6bfc;stop-opacity:1;" offset="0.71875"/><stop style="stop-color:#4b6bfc;stop-opacity:1;" offset="0.75"/><stop style="stop-color:#4a6bfc;stop-opacity:1;" offset="0.78125"/><stop style="stop-color:#4a6afc;stop-opacity:1;" offset="0.8125"/><stop style="stop-color:#496afc;stop-opacity:1;" offset="0.84375"/><stop style="stop-color:#4869fb;stop-opacity:1;" offset="0.875"/><stop style="stop-color:#4869fb;stop-opacity:1;" offset="0.90625"/><stop style="stop-color:#4768fb;stop-opacity:1;" offset="0.9375"/><stop style="stop-color:#4668fb;stop-opacity:1;" offset="0.96875"/><stop style="stop-color:#4567fb;stop-opacity:1;" offset="1"/></linearGradient><clipPath id="7ef366e7ed"><path d="M 123.441406 98.066406 L 149.992188 98.066406 L 149.992188 129.5 L 123.441406 129.5 Z M 123.441406 98.066406 "/></clipPath><clipPath id="6416f74bc1"><path d="M 126.441406 98.066406 L 147 98.066406 C 148.65625 98.066406 150 99.410156 150 101.066406 L 150 126.507812 C 150 128.167969 148.65625 129.507812 147 129.507812 L 126.441406 129.507812 C 124.785156 129.507812 123.441406 128.167969 123.441406 126.507812 L 123.441406 101.066406 C 123.441406 99.410156 124.785156 98.066406 126.441406 98.066406 Z M 126.441406 98.066406 "/></clipPath><linearGradient x1="128" gradientTransform="matrix(0.103712,0,0,0.103712,123.442941,98.067253)" y1="0.00390808" x2="128" gradientUnits="userSpaceOnUse" y2="303.082" id="712d2eb550"><stop style="stop-color:#5c76ff;stop-opacity:1;" offset="0"/><stop style="stop-color:#5c76ff;stop-opacity:1;" offset="0.03125"/><stop style="stop-color:#5b75ff;stop-opacity:1;" offset="0.0625"/><stop style="stop-color:#5a75ff;stop-opacity:1;" offset="0.09375"/><stop style="stop-color:#5a74ff;stop-opacity:1;" offset="0.125"/><stop style="stop-color:#5974fe;stop-opacity:1;" offset="0.15625"/><stop style="stop-color:#5873fe;stop-opacity:1;" offset="0.1875"/><stop style="stop-color:#5773fe;stop-opacity:1;" offset="0.21875"/><stop style="stop-color:#5773fe;stop-opacity:1;" offset="0.25"/><stop style="stop-color:#5672fe;stop-opacity:1;" offset="0.28125"/><stop style="stop-color:#5572fe;stop-opacity:1;" offset="0.3125"/><stop style="stop-color:#5571fe;stop-opacity:1;" offset="0.34375"/><stop style="stop-color:#5471fe;stop-opacity:1;" offset="0.375"/><stop style="stop-color:#5370fd;stop-opacity:1;" offset="0.40625"/><stop style="stop-color:#5270fd;stop-opacity:1;" offset="0.4375"/><stop style="stop-color:#526ffd;stop-opacity:1;" offset="0.46875"/><stop style="stop-color:#516ffd;stop-opacity:1;" offset="0.5"/><stop style="stop-color:#506efd;stop-opacity:1;" offset="0.53125"/><stop style="stop-color:#506efd;stop-opacity:1;" offset="0.5625"/><stop style="stop-color:#4f6dfd;stop-opacity:1;" offset="0.59375"/><stop style="stop-color:#4e6dfd;stop-opacity:1;" offset="0.625"/><stop style="stop-color:#4d6cfc;stop-opacity:1;" offset="0.65625"/><stop style="stop-color:#4d6cfc;stop-opacity:1;" offset="0.6875"/><stop style="stop-color:#4c6bfc;stop-opacity:1;" offset="0.71875"/><stop style="stop-color:#4b6bfc;stop-opacity:1;" offset="0.75"/><stop style="stop-color:#4a6bfc;stop-opacity:1;" offset="0.78125"/><stop style="stop-color:#4a6afc;stop-opacity:1;" offset="0.8125"/><stop style="stop-color:#496afc;stop-opacity:1;" offset="0.84375"/><stop style="stop-color:#4869fb;stop-opacity:1;" offset="0.875"/><stop style="stop-color:#4869fb;stop-opacity:1;" offset="0.90625"/><stop style="stop-color:#4768fb;stop-opacity:1;" offset="0.9375"/><stop style="stop-color:#4668fb;stop-opacity:1;" offset="0.96875"/><stop style="stop-color:#4567fb;stop-opacity:1;" offset="1"/></linearGradient></defs><g id="f6820771b7"><g style="fill:#000000;fill-opacity:1;"><g transform="translate(176.494416, 90.414357)"><path style="stroke:none" d="M 20.578125 -7.015625 C 21.765625 -7.015625 22.914062 -7.191406 24.03125 -7.546875 C 25.144531 -7.898438 25.960938 -8.242188 26.484375 -8.578125 L 27.265625 -9.109375 L 30.5625 -2.515625 C 30.457031 -2.429688 30.304688 -2.320312 30.109375 -2.1875 C 29.921875 -2.050781 29.472656 -1.796875 28.765625 -1.421875 C 28.066406 -1.046875 27.316406 -0.722656 26.515625 -0.453125 C 25.722656 -0.179688 24.679688 0.0625 23.390625 0.28125 C 22.097656 0.507812 20.765625 0.625 19.390625 0.625 C 16.222656 0.625 13.222656 -0.148438 10.390625 -1.703125 C 7.554688 -3.265625 5.273438 -5.40625 3.546875 -8.125 C 1.816406 -10.84375 0.953125 -13.785156 0.953125 -16.953125 C 0.953125 -19.347656 1.457031 -21.644531 2.46875 -23.84375 C 3.488281 -26.039062 4.84375 -27.921875 6.53125 -29.484375 C 8.226562 -31.054688 10.203125 -32.3125 12.453125 -33.25 C 14.710938 -34.1875 17.023438 -34.65625 19.390625 -34.65625 C 21.585938 -34.65625 23.613281 -34.390625 25.46875 -33.859375 C 27.320312 -33.335938 28.632812 -32.816406 29.40625 -32.296875 L 30.5625 -31.515625 L 27.265625 -24.921875 C 27.078125 -25.078125 26.789062 -25.269531 26.40625 -25.5 C 26.019531 -25.738281 25.25 -26.050781 24.09375 -26.4375 C 22.9375 -26.820312 21.765625 -27.015625 20.578125 -27.015625 C 18.710938 -27.015625 17.035156 -26.710938 15.546875 -26.109375 C 14.066406 -25.503906 12.890625 -24.707031 12.015625 -23.71875 C 11.148438 -22.726562 10.488281 -21.660156 10.03125 -20.515625 C 9.582031 -19.378906 9.359375 -18.21875 9.359375 -17.03125 C 9.359375 -14.445312 10.328125 -12.128906 12.265625 -10.078125 C 14.210938 -8.035156 16.984375 -7.015625 20.578125 -7.015625 Z M 20.578125 -7.015625 "/></g></g><g style="fill:#000000;fill-opacity:1;"><g transform="translate(207.547721, 90.414357)"><path style="stroke:none" d="M 2.46875 0 L 2.46875 -35.46875 L 9.78125 -35.46875 L 9.78125 0 Z M 2.46875 0 "/></g></g><g style="fill:#000000;fill-opacity:1;"><g transform="translate(219.795839, 90.414357)"><path style="stroke:none" d="M 9.359375 -21.15625 L 9.359375 -11.09375 C 9.359375 -9.007812 9.675781 -7.523438 10.3125 -6.640625 C 10.945312 -5.765625 12.019531 -5.328125 13.53125 -5.328125 C 15.039062 -5.328125 16.113281 -5.765625 16.75 -6.640625 C 17.382812 -7.523438 17.703125 -9.007812 17.703125 -11.09375 L 17.703125 -21.15625 L 25 -21.15625 L 25 -9.328125 C 25 -5.804688 24.082031 -3.265625 22.25 -1.703125 C 20.425781 -0.148438 17.519531 0.625 13.53125 0.625 C 9.539062 0.625 6.628906 -0.148438 4.796875 -1.703125 C 2.972656 -3.265625 2.0625 -5.804688 2.0625 -9.328125 L 2.0625 -21.15625 Z M 9.359375 -21.15625 "/></g></g><g style="fill:#000000;fill-opacity:1;"><g transform="translate(246.848914, 90.414357)"><path style="stroke:none" d="M 24.25 -18.515625 C 26.226562 -16.347656 27.21875 -13.695312 27.21875 -10.5625 C 27.21875 -7.425781 26.226562 -4.773438 24.25 -2.609375 C 22.269531 -0.453125 19.753906 0.625 16.703125 0.625 C 13.898438 0.625 11.59375 -0.378906 9.78125 -2.390625 L 9.6875 -2.390625 L 9.6875 0 L 2.46875 0 L 2.46875 -35.46875 L 9.78125 -35.46875 L 9.78125 -19.140625 C 11.59375 -20.898438 13.898438 -21.78125 16.703125 -21.78125 C 19.753906 -21.78125 22.269531 -20.691406 24.25 -18.515625 Z M 18.109375 -6.984375 C 19.015625 -7.910156 19.46875 -9.101562 19.46875 -10.5625 C 19.46875 -12.019531 18.992188 -13.210938 18.046875 -14.140625 C 17.097656 -15.078125 15.921875 -15.546875 14.515625 -15.546875 C 13.140625 -15.546875 11.976562 -15.078125 11.03125 -14.140625 C 10.082031 -13.210938 9.609375 -12.019531 9.609375 -10.5625 C 9.609375 -9.132812 10.066406 -7.953125 10.984375 -7.015625 C 11.910156 -6.078125 13.085938 -5.609375 14.515625 -5.609375 C 16.003906 -5.609375 17.203125 -6.066406 18.109375 -6.984375 Z M 18.109375 -6.984375 "/></g></g><g style="fill:#000000;fill-opacity:1;"><g transform="translate(275.015456, 90.414357)"><path style="stroke:none" d="M 22.15625 -34.03125 L 22.15625 -27.21875 L 10.234375 -27.21875 L 10.234375 -20.453125 L 21.25 -20.453125 L 21.25 -13.65625 L 10.234375 -13.65625 L 10.234375 0 L 2.46875 0 L 2.46875 -34.03125 Z M 22.15625 -34.03125 "/></g></g><g style="fill:#000000;fill-opacity:1;"><g transform="translate(297.078443, 90.414357)"><path style="stroke:none" d="M 23.890625 -9.5625 L 8.53125 -9.5625 C 8.53125 -8.082031 9.007812 -6.984375 9.96875 -6.265625 C 10.9375 -5.554688 11.988281 -5.203125 13.125 -5.203125 C 14.300781 -5.203125 15.234375 -5.359375 15.921875 -5.671875 C 16.609375 -5.984375 17.394531 -6.609375 18.28125 -7.546875 L 23.546875 -4.90625 C 21.347656 -1.21875 17.691406 0.625 12.578125 0.625 C 9.390625 0.625 6.65625 -0.46875 4.375 -2.65625 C 2.09375 -4.84375 0.953125 -7.476562 0.953125 -10.5625 C 0.953125 -13.644531 2.09375 -16.285156 4.375 -18.484375 C 6.65625 -20.679688 9.390625 -21.78125 12.578125 -21.78125 C 15.929688 -21.78125 18.660156 -20.8125 20.765625 -18.875 C 22.867188 -16.9375 23.921875 -14.164062 23.921875 -10.5625 C 23.921875 -10.0625 23.910156 -9.726562 23.890625 -9.5625 Z M 8.75 -13.609375 L 16.78125 -13.609375 C 16.625 -14.710938 16.191406 -15.554688 15.484375 -16.140625 C 14.785156 -16.734375 13.882812 -17.03125 12.78125 -17.03125 C 11.570312 -17.03125 10.609375 -16.710938 9.890625 -16.078125 C 9.179688 -15.453125 8.800781 -14.628906 8.75 -13.609375 Z M 8.75 -13.609375 "/></g></g><g style="fill:#000000;fill-opacity:1;"><g transform="translate(321.945832, 90.414357)"><path style="stroke:none" d="M 23.890625 -9.5625 L 8.53125 -9.5625 C 8.53125 -8.082031 9.007812 -6.984375 9.96875 -6.265625 C 10.9375 -5.554688 11.988281 -5.203125 13.125 -5.203125 C 14.300781 -5.203125 15.234375 -5.359375 15.921875 -5.671875 C 16.609375 -5.984375 17.394531 -6.609375 18.28125 -7.546875 L 23.546875 -4.90625 C 21.347656 -1.21875 17.691406 0.625 12.578125 0.625 C 9.390625 0.625 6.65625 -0.46875 4.375 -2.65625 C 2.09375 -4.84375 0.953125 -7.476562 0.953125 -10.5625 C 0.953125 -13.644531 2.09375 -16.285156 4.375 -18.484375 C 6.65625 -20.679688 9.390625 -21.78125 12.578125 -21.78125 C 15.929688 -21.78125 18.660156 -20.8125 20.765625 -18.875 C 22.867188 -16.9375 23.921875 -14.164062 23.921875 -10.5625 C 23.921875 -10.0625 23.910156 -9.726562 23.890625 -9.5625 Z M 8.75 -13.609375 L 16.78125 -13.609375 C 16.625 -14.710938 16.191406 -15.554688 15.484375 -16.140625 C 14.785156 -16.734375 13.882812 -17.03125 12.78125 -17.03125 C 11.570312 -17.03125 10.609375 -16.710938 9.890625 -16.078125 C 9.179688 -15.453125 8.800781 -14.628906 8.75 -13.609375 Z M 8.75 -13.609375 "/></g></g><g style="fill:#000000;fill-opacity:1;"><g transform="translate(346.813221, 90.414357)"><path style="stroke:none" d="M 3.921875 -2.609375 C 1.941406 -4.773438 0.953125 -7.425781 0.953125 -10.5625 C 0.953125 -13.695312 1.941406 -16.347656 3.921875 -18.515625 C 5.898438 -20.691406 8.414062 -21.78125 11.46875 -21.78125 C 14.269531 -21.78125 16.578125 -20.898438 18.390625 -19.140625 L 18.390625 -35.46875 L 25.703125 -35.46875 L 25.703125 0 L 18.484375 0 L 18.484375 -2.390625 L 18.390625 -2.390625 C 16.578125 -0.378906 14.269531 0.625 11.46875 0.625 C 8.414062 0.625 5.898438 -0.453125 3.921875 -2.609375 Z M 10.125 -14.140625 C 9.175781 -13.210938 8.703125 -12.019531 8.703125 -10.5625 C 8.703125 -9.101562 9.15625 -7.910156 10.0625 -6.984375 C 10.96875 -6.066406 12.164062 -5.609375 13.65625 -5.609375 C 15.082031 -5.609375 16.253906 -6.078125 17.171875 -7.015625 C 18.097656 -7.953125 18.5625 -9.132812 18.5625 -10.5625 C 18.5625 -12.019531 18.085938 -13.210938 17.140625 -14.140625 C 16.191406 -15.078125 15.03125 -15.546875 13.65625 -15.546875 C 12.25 -15.546875 11.070312 -15.078125 10.125 -14.140625 Z M 10.125 -14.140625 "/></g></g><g clip-rule="nonzero" clip-path="url(#d48b84b192)"><path style=" stroke:none;fill-rule:nonzero;fill:#fff9ef;fill-opacity:1;" d="M 22.679688 0 L 127.320312 0 L 127.320312 118.535156 L 22.679688 118.535156 Z M 22.679688 0 "/></g><g style="fill:#000000;fill-opacity:1;"><g transform="translate(56.150381, 68.999998)"><path style="stroke:none" d="M 3.953125 -9.71875 L 3.09375 -30.953125 L 9.46875 -30.953125 L 8.609375 -9.71875 Z M 6.265625 -7.703125 C 7.410156 -7.703125 8.382812 -7.300781 9.1875 -6.5 C 10 -5.695312 10.40625 -4.71875 10.40625 -3.5625 C 10.40625 -2.4375 10 -1.46875 9.1875 -0.65625 C 8.382812 0.144531 7.410156 0.546875 6.265625 0.546875 C 5.140625 0.546875 4.171875 0.144531 3.359375 -0.65625 C 2.554688 -1.46875 2.15625 -2.4375 2.15625 -3.5625 C 2.15625 -4.71875 2.554688 -5.695312 3.359375 -6.5 C 4.171875 -7.300781 5.140625 -7.703125 6.265625 -7.703125 Z M 6.265625 -7.703125 "/></g></g><g style="fill:#000000;fill-opacity:1;"><g transform="translate(68.714403, 68.999998)"><path style="stroke:none" d="M 3.953125 -9.71875 L 3.09375 -30.953125 L 9.46875 -30.953125 L 8.609375 -9.71875 Z M 6.265625 -7.703125 C 7.410156 -7.703125 8.382812 -7.300781 9.1875 -6.5 C 10 -5.695312 10.40625 -4.71875 10.40625 -3.5625 C 10.40625 -2.4375 10 -1.46875 9.1875 -0.65625 C 8.382812 0.144531 7.410156 0.546875 6.265625 0.546875 C 5.140625 0.546875 4.171875 0.144531 3.359375 -0.65625 C 2.554688 -1.46875 2.15625 -2.4375 2.15625 -3.5625 C 2.15625 -4.71875 2.554688 -5.695312 3.359375 -6.5 C 4.171875 -7.300781 5.140625 -7.703125 6.265625 -7.703125 Z M 6.265625 -7.703125 "/></g></g><g style="fill:#000000;fill-opacity:1;"><g transform="translate(81.278424, 68.999998)"><path style="stroke:none" d="M 3.953125 -9.71875 L 3.09375 -30.953125 L 9.46875 -30.953125 L 8.609375 -9.71875 Z M 6.265625 -7.703125 C 7.410156 -7.703125 8.382812 -7.300781 9.1875 -6.5 C 10 -5.695312 10.40625 -4.71875 10.40625 -3.5625 C 10.40625 -2.4375 10 -1.46875 9.1875 -0.65625 C 8.382812 0.144531 7.410156 0.546875 6.265625 0.546875 C 5.140625 0.546875 4.171875 0.144531 3.359375 -0.65625 C 2.554688 -1.46875 2.15625 -2.4375 2.15625 -3.5625 C 2.15625 -4.71875 2.554688 -5.695312 3.359375 -6.5 C 4.171875 -7.300781 5.140625 -7.703125 6.265625 -7.703125 Z M 6.265625 -7.703125 "/></g></g><g clip-rule="nonzero" clip-path="url(#afa4459353)"><g clip-rule="nonzero" clip-path="url(#b4c6a7dfcf)"><path style=" stroke:none;fill-rule:nonzero;fill:url(#44c2723567);" d="M 0 118.558594 L 0 149.992188 L 149.960938 149.992188 L 149.960938 118.558594 Z M 0 118.558594 "/></g></g><g clip-rule="nonzero" clip-path="url(#1d6c3d4e83)"><g clip-rule="nonzero" clip-path="url(#b5a98b33f9)"><path style=" stroke:none;fill-rule:nonzero;fill:url(#9a38fdefbe);" d="M 0 98.066406 L 0 129.5 L 26.550781 129.5 L 26.550781 98.066406 Z M 0 98.066406 "/></g></g><g clip-rule="nonzero" clip-path="url(#7ef366e7ed)"><g clip-rule="nonzero" clip-path="url(#6416f74bc1)"><path style=" stroke:none;fill-rule:nonzero;fill:url(#712d2eb550);" d="M 123.441406 98.066406 L 123.441406 129.5 L 149.992188 129.5 L 149.992188 98.066406 Z M 123.441406 98.066406 "/></g></g></g></svg>